# xmcd
#
# Track frame offsets: 
#        150
#        27450
#        45343
#        68608
#        84317
#        107811
#        130371
#        154628
#        176453
#        198954
#
# Disc length: 2943 seconds
#
# Revision: 0
# Processed by: cddbd v1.5.2PL0 Copyright (c) Steve Scherf et al.
# Submitted via: ExactAudioCopy v1.0b3
#
DISCID=770b7d0a
DTITLE=Truong Vu, Nhu Quynh - Tuoi Hoc Tro Thoi Chinh Chien
DYEAR=2002
DGENRE=
TTITLE0=Truong Vu - Mua dem tinh le
TTITLE1=Nhu Quynh - Co ban hoc
TTITLE2=Truong Vu - Ha buon
TTITLE3=Nhu Quynh - Mot minh thoi
TTITLE4=Truong Vu - Luu but ngay xanh
TTITLE5=Nhu Quynh - Thuyen xa ben xua
TTITLE6=Truong Vu - Muoi sau trang tron
TTITLE7=Nhu Quynh - Trung Vuong khung cua mua thu
TTITLE8=Truong Vu - Ky niem mot mua he
TTITLE9=Nhu Quynh, Tuong Nguyen - Dung noi xa nhau
EXTD=
EXTT0=
EXTT1=
EXTT2=
EXTT3=
EXTT4=
EXTT5=
EXTT6=
EXTT7=
EXTT8=
EXTT9=
PLAYORDER=
